<svg width="44" height="43" viewBox="0 0 44 43" fill="none" xmlns="http://www.w3.org/2000/svg">
<path d="M22.0627 23.1291C25.574 23.1291 28.4204 20.2943 28.4204 16.7973C28.4204 13.3004 25.574 10.4656 22.0627 10.4656C18.5514 10.4656 15.705 13.3004 15.705 16.7973C15.705 20.2943 18.5514 23.1291 22.0627 23.1291Z" fill="#D7DAE5"/>
<path d="M21.9691 40.741C26.3986 40.741 30.4798 39.2569 33.7448 36.7622C31.7453 29.7182 27.1998 24.7475 21.9691 24.7475C16.7384 24.7475 12.1892 29.7182 10.1935 36.7622C13.4547 39.2569 17.5359 40.741 21.9691 40.741Z" fill="#D7DAE5"/>
<circle cx="21.9673" cy="21.4918" r="21.4918" fill="white"/>
<path d="M22.0628 23.1291C25.5741 23.1291 28.4205 20.2943 28.4205 16.7973C28.4205 13.3004 25.5741 10.4656 22.0628 10.4656C18.5515 10.4656 15.7051 13.3004 15.7051 16.7973C15.7051 20.2943 18.5515 23.1291 22.0628 23.1291Z" fill="#D7DAE5"/>
<path d="M21.9691 40.741C26.3986 40.741 30.4798 39.2569 33.7448 36.7622C31.7453 29.7182 27.1998 24.7475 21.9691 24.7475C16.7384 24.7475 12.1892 29.7182 10.1935 36.7622C13.4547 39.2569 17.5359 40.741 21.9691 40.741Z" fill="#D7DAE5"/>
</svg>
