<svg width="26" height="17" viewBox="0 0 26 17" fill="none" xmlns="http://www.w3.org/2000/svg">
<path d="M20.2 1H3.4C2.07452 1 1 2.07452 1 3.4V13C1 14.3255 2.07452 15.4 3.4 15.4H20.2C21.5255 15.4 22.6 14.3255 22.6 13V3.4C22.6 2.07452 21.5255 1 20.2 1Z" stroke="black" stroke-width="2" stroke-linecap="round" stroke-linejoin="round"/>
<path d="M7 5.80005V10.6" stroke="black" stroke-width="2" stroke-linecap="round" stroke-linejoin="round"/>
<path d="M22.6 5.80005H24.4C24.5591 5.80005 24.7117 5.86326 24.8242 5.97578C24.9368 6.08831 25 6.24092 25 6.40005V10C25 10.1592 24.9368 10.3118 24.8242 10.4243C24.7117 10.5368 24.5591 10.6 24.4 10.6H22.6V5.80005Z" stroke="black" stroke-width="2" stroke-linecap="round" stroke-linejoin="round"/>
</svg>
