<svg width="375" height="230" viewBox="0 0 375 230" fill="none" xmlns="http://www.w3.org/2000/svg">
<path d="M337.361 15.375C345.319 15.375 351.77 9.68817 351.77 2.67309C351.77 -4.34199 345.319 -10.0288 337.361 -10.0288C329.403 -10.0288 322.952 -4.34199 322.952 2.67309C322.952 9.68817 329.403 15.375 337.361 15.375Z" fill="#D7DAE5"/>
<path d="M337.392 18.0599C333.388 18.0668 329.502 16.859 326.388 14.6394C323.274 12.4198 321.121 9.32338 320.29 5.8699C319.459 2.41642 320.001 -1.18391 321.825 -4.3268C323.649 -7.46969 326.644 -9.96382 330.307 -11.3906C334.539 -13.0405 339.341 -13.1408 343.657 -11.6696C347.973 -10.1984 351.449 -7.27613 353.321 -3.54556C355.184 0.187866 355.292 4.42047 353.62 8.22379C351.948 12.0271 348.633 15.0906 344.403 16.7423C342.197 17.611 339.808 18.0599 337.392 18.0599ZM337.392 -7.35504C335.698 -7.3567 334.025 -7.02468 332.495 -6.38325C330.964 -5.74183 329.616 -4.8072 328.548 -3.64762C327.48 -2.48804 326.72 -1.13281 326.322 0.319076C325.924 1.77096 325.9 3.28283 326.249 4.74424C326.599 6.20566 327.315 7.57971 328.345 8.76602C329.374 9.95234 330.691 10.921 332.2 11.6011C333.708 12.2813 335.37 12.6558 337.063 12.6973C338.757 12.7389 340.44 12.4464 341.989 11.8412C344.747 10.7635 346.907 8.76444 347.994 6.28342C349.081 3.80241 349.006 1.04242 347.786 -1.38998C346.891 -3.16335 345.434 -4.67093 343.59 -5.7312C341.746 -6.79147 339.594 -7.35921 337.392 -7.36606V-7.35504Z" fill="#D7DAE5"/>
<path d="M93.9071 56.1899L-64.1365 329.627L-53.2987 334.495L104.745 61.058L93.9071 56.1899Z" fill="#D7DAE5"/>
<path d="M349.242 11.3757L337.408 14.1495L418.114 281.726L429.948 278.952L349.242 11.3757Z" fill="#D7DAE5"/>
<path d="M122.659 55.7194L112.927 62.2805L192.552 154.056L202.283 147.495L122.659 55.7194Z" fill="#D7DAE5"/>
<path d="M327.209 7.18167L206.977 149.379L216.799 155.833L337.031 13.636L327.209 7.18167Z" fill="#D7DAE5"/>
<path d="M106.929 64.0272C114.946 64.0272 121.444 58.2984 121.444 51.2315C121.444 44.1647 114.946 38.4359 106.929 38.4359C98.9127 38.4359 92.4142 44.1647 92.4142 51.2315C92.4142 58.2984 98.9127 64.0272 106.929 64.0272Z" fill="#D7DAE5"/>
<path d="M106.961 66.723C102.93 66.7274 99.0202 65.5102 95.8867 63.2755C92.7531 61.0408 90.5862 57.9245 89.7491 54.4488C88.9121 50.9732 89.4558 47.3495 91.2891 44.1852C93.1224 41.0209 96.1339 38.5083 99.8187 37.0687C101.93 36.2426 104.205 35.7915 106.514 35.7412C108.823 35.6909 111.121 36.0425 113.276 36.7757C115.431 37.5089 117.401 38.6095 119.073 40.0144C120.745 41.4193 122.086 43.101 123.02 44.9633C124.9 48.721 125.013 52.9824 123.334 56.8134C121.655 60.6443 118.322 63.7322 114.065 65.3999C111.829 66.278 109.408 66.7289 106.961 66.723ZM106.929 41.1317C104.065 41.1269 101.302 42.0656 99.182 43.7636C97.062 45.4616 95.7381 47.7965 95.4698 50.3105C95.2015 52.8244 96.0082 55.336 97.7317 57.3528C99.4552 59.3696 101.971 60.7461 104.786 61.2123C107.601 61.6786 110.512 61.2009 112.949 59.8731C115.385 58.5453 117.171 56.463 117.956 54.0347C118.741 51.6063 118.468 49.0071 117.192 46.7465C115.916 44.486 113.728 42.7273 111.057 41.8153C109.741 41.3641 108.341 41.1323 106.929 41.1317Z" fill="#D7DAE5"/>
<path d="M205.513 188.549C219.643 188.549 231.097 178.452 231.097 165.995C231.097 153.539 219.643 143.442 205.513 143.442C191.384 143.442 179.929 153.539 179.929 165.995C179.929 178.452 191.384 188.549 205.513 188.549Z" fill="#D7DAE5"/>
<path d="M205.57 191.262C198.531 191.277 191.73 189.013 186.461 184.899C181.191 180.785 177.82 175.108 176.987 168.946C176.154 162.785 177.918 156.568 181.943 151.478C185.968 146.387 191.975 142.778 198.821 141.335C205.667 139.892 212.876 140.717 219.077 143.652C225.279 146.587 230.041 151.429 232.46 157.256C234.878 163.084 234.783 169.492 232.194 175.262C229.605 181.032 224.701 185.763 218.415 188.555C214.432 190.33 210.033 191.257 205.57 191.262ZM205.526 146.132C202.134 146.143 198.788 146.83 195.739 148.141C192.69 149.451 190.017 151.353 187.919 153.702C185.82 156.052 184.351 158.789 183.622 161.71C182.892 164.63 182.921 167.658 183.705 170.568C184.489 173.477 186.009 176.192 188.151 178.511C190.293 180.83 193.002 182.692 196.075 183.958C199.148 185.225 202.506 185.862 205.898 185.824C209.29 185.785 212.628 185.072 215.663 183.736C220.208 181.736 223.853 178.44 226.004 174.383C228.155 170.326 228.686 165.747 227.512 161.39C226.337 157.033 223.526 153.154 219.534 150.384C215.543 147.614 210.606 146.116 205.526 146.132Z" fill="#D7DAE5"/>
</svg>
