<svg width="375" height="587" viewBox="0 0 375 587" fill="none" xmlns="http://www.w3.org/2000/svg">
<g clip-path="url(#clip0)">
<path d="M28.4309 167.211C28.4309 159.804 23.1374 153.799 16.6077 153.799C10.0779 153.799 4.7845 159.804 4.7845 167.211C4.7845 174.618 10.0779 180.623 16.6077 180.623C23.1374 180.623 28.4309 174.618 28.4309 167.211Z" fill="#D7DAE5"/>
<path d="M30.93 167.182C30.9364 170.91 29.8122 174.526 27.7461 177.425C25.6801 180.324 22.7979 182.328 19.5833 183.101C16.3688 183.875 13.0175 183.37 10.0921 181.672C7.1666 179.975 4.84502 177.187 3.51699 173.777C1.98123 169.838 1.88779 165.368 3.25721 161.351C4.62664 157.334 7.34677 154.098 10.8192 152.356C14.2944 150.621 18.2342 150.521 21.7744 152.077C25.3146 153.633 28.1661 156.719 29.7035 160.657C30.5121 162.71 30.93 164.933 30.93 167.182ZM7.27331 167.182C7.27177 168.759 7.58082 170.317 8.17787 171.741C8.77492 173.165 9.64489 174.42 10.7242 175.414C11.8036 176.408 13.0651 177.116 14.4165 177.486C15.768 177.857 17.1752 177.88 18.5355 177.554C19.8959 177.228 21.1748 176.562 22.2791 175.604C23.3833 174.645 24.2849 173.42 24.918 172.016C25.5511 170.611 25.8998 169.065 25.9384 167.488C25.9771 165.912 25.7048 164.345 25.1415 162.903C24.1383 160.336 22.2776 158.325 19.9682 157.314C17.6589 156.302 15.0898 156.371 12.8257 157.507C11.175 158.34 9.77173 159.696 8.78481 161.413C7.79789 163.129 7.26943 165.133 7.26305 167.182L7.27331 167.182Z" fill="#D7DAE5"/>
<path d="M66.4221 393.822L320.943 540.932L325.474 530.844L70.9534 383.734L66.4221 393.822Z" fill="#D7DAE5"/>
<path d="M24.7082 156.152L27.2901 167.167L276.355 92.0447L273.773 81.0297L24.7082 156.152Z" fill="#D7DAE5"/>
<path d="M65.9841 367.06L72.0913 376.118L157.517 302.002L151.41 292.944L65.9841 367.06Z" fill="#D7DAE5"/>
<path d="M20.8043 176.661L153.164 288.575L159.172 279.432L26.8121 167.518L20.8043 176.661Z" fill="#D7DAE5"/>
<path d="M73.7172 381.701C73.7172 374.239 68.3847 368.19 61.8067 368.19C55.2288 368.19 49.8963 374.239 49.8963 381.701C49.8963 389.163 55.2288 395.212 61.8067 395.212C68.3847 395.212 73.7172 389.163 73.7172 381.701Z" fill="#D7DAE5"/>
<path d="M76.2265 381.672C76.2306 385.424 75.0976 389.063 73.0175 391.98C70.9374 394.897 68.0366 396.914 64.8014 397.693C61.5662 398.472 58.1932 397.966 55.2479 396.259C52.3025 394.553 49.9637 391.75 48.6237 388.32C47.8547 386.355 47.4349 384.237 47.3881 382.087C47.3413 379.938 47.6685 377.799 48.351 375.793C49.0335 373.788 50.0579 371.954 51.3656 370.398C52.6733 368.841 54.2387 367.593 55.9721 366.723C59.4698 364.974 63.4365 364.869 67.0024 366.431C70.5683 367.994 73.4426 371.097 74.9949 375.059C75.8122 377.14 76.232 379.394 76.2265 381.672ZM52.4057 381.701C52.4012 384.367 53.2749 386.939 54.8555 388.912C56.436 390.886 58.6094 392.118 60.9494 392.368C63.2894 392.617 65.6273 391.867 67.5045 390.262C69.3818 388.658 70.663 386.316 71.097 383.696C71.531 381.076 71.0864 378.366 69.8505 376.098C68.6145 373.83 66.6763 372.168 64.416 371.437C62.1556 370.707 59.7362 370.96 57.632 372.148C55.5279 373.336 53.8909 375.373 53.042 377.859C52.622 379.084 52.4062 380.387 52.4057 381.701Z" fill="#D7DAE5"/>
<path d="M358.094 539.761C358.094 526.702 348.762 516.116 337.25 516.116C325.738 516.116 316.405 526.702 316.405 539.761C316.405 552.82 325.738 563.407 337.25 563.407C348.762 563.407 358.094 552.82 358.094 539.761Z" fill="#D7DAE5"/>
<path d="M360.604 539.738C360.601 542.573 360.199 545.389 359.413 548.08C357.719 553.901 354.297 558.876 349.731 562.157C345.165 565.437 339.738 566.82 334.374 566.07C329.01 565.319 324.041 562.482 320.314 558.042C316.588 553.602 314.334 547.833 313.936 541.719C313.539 535.605 315.023 529.524 318.136 524.511C321.248 519.499 325.796 515.867 331.005 514.232C336.214 512.598 341.762 513.063 346.702 515.549C351.643 518.034 355.671 522.386 358.1 527.863C359.742 531.545 360.599 535.612 360.604 539.738ZM318.894 539.779C318.895 542.922 319.524 546.024 320.733 548.852C321.941 551.681 323.699 554.162 325.873 556.11C328.048 558.058 330.583 559.422 333.288 560.101C335.994 560.779 338.8 560.754 341.496 560.027C344.191 559.3 346.707 557.89 348.854 555.903C351.001 553.916 352.723 551.403 353.892 548.554C355.061 545.704 355.646 542.591 355.603 539.448C355.561 536.305 354.891 533.214 353.645 530.407C351.788 526.221 348.739 522.868 344.994 520.891C341.248 518.914 337.024 518.428 333.004 519.512C328.985 520.596 325.405 523.186 322.845 526.864C320.284 530.542 318.892 535.092 318.894 539.779Z" fill="#D7DAE5"/>
<path d="M189.624 289.937C189.624 276.785 180.225 266.123 168.631 266.123C157.037 266.123 147.638 276.785 147.638 289.937C147.638 303.089 157.037 313.751 168.631 313.751C180.225 313.751 189.624 303.089 189.624 289.937Z" fill="#D7DAE5"/>
<path d="M192.149 289.885C192.164 296.437 190.056 302.767 186.227 307.672C182.397 312.577 177.113 315.715 171.378 316.49C165.642 317.266 159.856 315.624 155.117 311.877C150.379 308.13 147.019 302.539 145.676 296.167C144.334 289.794 145.101 283.084 147.833 277.312C150.566 271.539 155.072 267.106 160.497 264.855C165.921 262.604 171.885 262.692 177.256 265.103C182.627 267.513 187.031 272.077 189.629 277.928C191.282 281.636 192.145 285.731 192.149 289.885ZM150.142 289.926C150.152 293.083 150.791 296.197 152.011 299.035C153.232 301.873 155.001 304.362 157.188 306.315C159.376 308.268 161.924 309.635 164.642 310.314C167.36 310.993 170.179 310.967 172.887 310.237C175.595 309.507 178.123 308.092 180.281 306.098C182.439 304.104 184.173 301.583 185.351 298.723C186.53 295.862 187.123 292.737 187.088 289.579C187.052 286.422 186.388 283.315 185.144 280.49C183.283 276.259 180.214 272.867 176.438 270.864C172.662 268.862 168.4 268.367 164.344 269.461C160.289 270.554 156.678 273.171 154.1 276.886C151.522 280.602 150.127 285.197 150.142 289.926Z" fill="#D7DAE5"/>
<path d="M288.233 86.9206C288.233 73.8616 278.901 63.2753 267.388 63.2753C255.876 63.2753 246.544 73.8616 246.544 86.9206C246.544 99.9795 255.876 110.566 267.388 110.566C278.901 110.566 288.233 99.9795 288.233 86.9206Z" fill="#D7DAE5"/>
<path d="M290.732 86.9207C290.732 92.158 289.363 97.2777 286.798 101.632C284.233 105.987 280.587 109.381 276.322 111.385C272.056 113.389 267.363 113.914 262.834 112.892C258.306 111.87 254.147 109.348 250.882 105.645C247.617 101.942 245.394 97.2234 244.493 92.0867C243.593 86.9501 244.055 81.6258 245.822 76.7872C247.589 71.9486 250.581 67.8129 254.419 64.9033C258.258 61.9936 262.772 60.4406 267.388 60.4406C273.578 60.4483 279.511 63.2406 283.887 68.2049C288.264 73.1692 290.725 79.9001 290.732 86.9207ZM249.043 86.9207C249.043 91.038 250.119 95.0629 252.136 98.4862C254.153 101.91 257.019 104.578 260.372 106.153C263.726 107.728 267.416 108.14 270.976 107.337C274.535 106.533 277.805 104.55 280.371 101.638C282.937 98.7262 284.685 95.0165 285.392 90.9782C286.1 86.9398 285.736 82.7542 284.346 78.9506C282.956 75.1471 280.603 71.8964 277.585 69.6098C274.567 67.3232 271.018 66.1033 267.388 66.1045C262.526 66.1152 257.866 68.3124 254.429 72.2144C250.992 76.1163 249.059 81.4048 249.053 86.9207L249.043 86.9207Z" fill="#D7DAE5"/>
</g>
<defs>
<clipPath id="clip0">
<rect width="592" height="482" fill="white" transform="translate(-65 592) rotate(-90)"/>
</clipPath>
</defs>
</svg>
