<svg width="280" height="120" viewBox="0 0 280 120" fill="none" xmlns="http://www.w3.org/2000/svg">
<g clip-path="url(#clip0)">
<path d="M100.977 86.2637V78.0357H98.3691V76.6828H105.108V78.0357H102.5V86.2637H100.977Z" fill="black"/>
<path d="M108.529 86.44C107.935 86.4511 107.348 86.3097 106.825 86.0293C106.335 85.7656 105.924 85.3777 105.633 84.9047C105.339 84.4205 105.187 83.8636 105.194 83.2974C105.191 82.8724 105.277 82.4515 105.444 82.0609C105.775 81.2966 106.393 80.6919 107.164 80.3754C107.566 80.2121 107.997 80.1298 108.431 80.1333C108.998 80.1203 109.558 80.2516 110.06 80.5149C110.518 80.763 110.896 81.1347 111.152 81.5874C111.421 82.0749 111.556 82.6246 111.543 83.1809C111.546 83.2228 111.546 83.2647 111.543 83.3066C111.543 83.3387 111.533 83.3939 111.52 83.4705H106.67C106.663 83.8035 106.747 84.132 106.914 84.4205C107.077 84.6929 107.313 84.9138 107.596 85.0579C107.909 85.2149 108.255 85.2937 108.604 85.2877C108.938 85.2934 109.268 85.2188 109.566 85.0701C109.868 84.9078 110.13 84.6807 110.333 84.4052L111.385 84.9445C111.104 85.4155 110.697 85.7982 110.209 86.0492C109.69 86.317 109.113 86.4514 108.529 86.44ZM106.734 82.5604H110.109C110.067 82.308 109.963 82.0699 109.807 81.8669C109.651 81.6638 109.448 81.5021 109.215 81.3959C108.967 81.283 108.697 81.2265 108.425 81.2304C108.143 81.2258 107.864 81.2812 107.606 81.3928C107.375 81.4947 107.173 81.6527 107.02 81.8525C106.864 82.0594 106.766 82.3035 106.734 82.5604Z" fill="black"/>
<path d="M113.268 86.2637V80.3142H114.714V81.0282C114.957 80.7482 115.253 80.5181 115.584 80.3509C115.897 80.2017 116.241 80.1277 116.587 80.1349C117.026 80.1271 117.458 80.2366 117.839 80.4521C118.187 80.6438 118.459 80.9465 118.614 81.3116C118.853 80.9598 119.164 80.6626 119.527 80.4398C119.885 80.2301 120.295 80.124 120.711 80.1334C121.105 80.1259 121.495 80.216 121.846 80.3954C122.174 80.5674 122.446 80.8288 122.632 81.1492C122.831 81.5111 122.93 81.9193 122.918 82.3321V86.2637H121.472V82.7243C121.493 82.3436 121.369 81.969 121.127 81.6748C121.011 81.5474 120.868 81.4468 120.709 81.3801C120.55 81.3134 120.379 81.2822 120.206 81.2886C119.96 81.2848 119.716 81.3427 119.497 81.4572C119.297 81.562 119.127 81.716 119.004 81.9046C118.886 82.0816 118.823 82.2896 118.824 82.5022V86.2637H117.37V82.6646C117.389 82.3008 117.268 81.9435 117.032 81.6656C116.916 81.5387 116.774 81.4392 116.614 81.374C116.455 81.3088 116.284 81.2797 116.112 81.2886C115.862 81.2848 115.616 81.3427 115.394 81.4572C115.193 81.5617 115.022 81.7144 114.895 81.9015C114.776 82.0774 114.712 82.285 114.711 82.4976V86.2637H113.268Z" fill="black"/>
<path d="M125.06 89.273V80.3142H126.507V81.2197C126.745 80.8767 127.067 80.5999 127.442 80.4153C127.832 80.2229 128.262 80.1253 128.697 80.1303C129.237 80.1198 129.769 80.2622 130.231 80.5409C130.679 80.8153 131.045 81.2034 131.293 81.6656C131.547 82.1665 131.68 82.7203 131.68 83.2821C131.68 83.8438 131.547 84.3977 131.293 84.8986C131.048 85.3604 130.686 85.7494 130.242 86.0263C129.789 86.3045 129.267 86.448 128.736 86.44C128.3 86.4438 127.871 86.3425 127.483 86.1449C127.096 85.9472 126.762 85.6589 126.51 85.3046V89.273H125.06ZM128.32 85.2065C128.653 85.2116 128.981 85.1264 129.269 84.9598C129.545 84.7966 129.77 84.5621 129.923 84.2811C130.085 83.9762 130.167 83.635 130.161 83.2897C130.167 82.9434 130.084 82.6013 129.918 82.2969C129.768 82.0132 129.542 81.7763 129.266 81.612C128.98 81.4441 128.652 81.3582 128.32 81.3637C127.985 81.3583 127.655 81.4441 127.366 81.612C127.088 81.7747 126.861 82.0099 126.707 82.2923C126.549 82.6004 126.467 82.9418 126.467 83.2882C126.467 83.6346 126.549 83.976 126.707 84.2841C126.86 84.568 127.088 84.804 127.367 84.966C127.658 85.1295 127.986 85.2125 128.32 85.2065Z" fill="black"/>
<path d="M136.306 86.44C135.712 86.4508 135.125 86.3094 134.602 86.0294C134.112 85.766 133.702 85.378 133.411 84.9047C133.117 84.4208 132.965 83.8637 132.973 83.2974C132.969 82.8724 133.054 82.4513 133.223 82.0609C133.553 81.2959 134.17 80.6908 134.942 80.3755C135.344 80.2127 135.774 80.1309 136.208 80.1349C136.775 80.1215 137.335 80.2528 137.837 80.5164C138.295 80.7639 138.674 81.1357 138.929 81.589C139.198 82.0763 139.334 82.626 139.322 83.1825C139.322 83.2331 139.322 83.2744 139.322 83.3081L139.299 83.4721H134.448C134.441 83.8051 134.525 84.1336 134.692 84.4221C134.855 84.6945 135.092 84.9154 135.375 85.0595C135.687 85.2169 136.033 85.2958 136.383 85.2893C136.716 85.2948 137.045 85.2202 137.343 85.0717C137.645 84.9093 137.907 84.6822 138.11 84.4067L139.162 84.9461C138.881 85.4167 138.473 85.7994 137.986 86.0508C137.467 86.318 136.89 86.4518 136.306 86.44ZM134.511 82.5604H137.886C137.844 82.3078 137.741 82.0693 137.585 81.8662C137.429 81.663 137.225 81.5015 136.992 81.3959C136.744 81.2831 136.474 81.2266 136.202 81.2305C135.921 81.226 135.642 81.2814 135.384 81.3929C135.153 81.4947 134.951 81.6527 134.797 81.8525C134.641 82.0594 134.542 82.3035 134.511 82.5604Z" fill="black"/>
<path d="M141.046 86.2638V80.3142H142.493V81.1799C142.684 80.8575 142.954 80.5887 143.277 80.3984C143.592 80.2192 143.948 80.1267 144.311 80.1303C144.518 80.1307 144.724 80.1569 144.924 80.2084C145.11 80.2511 145.289 80.3202 145.455 80.4138L144.857 81.6395C144.718 81.558 144.569 81.4951 144.413 81.4526C144.261 81.4102 144.104 81.3876 143.946 81.3852C143.699 81.3846 143.456 81.4502 143.243 81.5752C143.029 81.6965 142.845 81.8653 142.706 82.0685C142.571 82.2585 142.499 82.4855 142.499 82.7182V86.2638H141.046Z" fill="black"/>
<path d="M149.057 86.44C148.53 86.4469 148.012 86.3057 147.561 86.0324C147.113 85.7595 146.746 85.3717 146.498 84.9093C146.23 84.4088 146.095 83.848 146.105 83.2805C146.096 82.7195 146.227 82.1649 146.486 81.6671C146.727 81.2043 147.09 80.8157 147.535 80.5425C147.957 80.296 148.434 80.156 148.922 80.1347C149.411 80.1133 149.897 80.2112 150.339 80.4199C150.716 80.6007 151.037 80.879 151.269 81.2258V80.3157H152.716V86.2638H151.269V85.3122C151.016 85.6625 150.685 85.9494 150.303 86.1504C149.917 86.347 149.49 86.4464 149.057 86.44ZM149.47 85.2142C149.803 85.2196 150.132 85.1343 150.421 84.9675C150.698 84.7997 150.923 84.5591 151.073 84.2719C151.23 83.9633 151.311 83.622 151.311 83.2759C151.311 82.9298 151.23 82.5886 151.073 82.28C150.921 81.9992 150.696 81.765 150.421 81.6028C150.132 81.4345 149.803 81.3486 149.47 81.3545C149.135 81.3491 148.805 81.4349 148.515 81.6028C148.238 81.7648 148.012 82.0002 147.86 82.2831C147.702 82.5912 147.62 82.9326 147.62 83.279C147.62 83.6254 147.702 83.9668 147.86 84.2749C148.012 84.5579 148.239 84.7937 148.515 84.9568C148.805 85.1242 149.135 85.2105 149.47 85.2065V85.2142Z" fill="black"/>
<path d="M156.724 86.44C156.489 86.4529 156.254 86.4127 156.036 86.3226C155.818 86.2324 155.623 86.0945 155.466 85.919C155.167 85.5717 155.017 85.0829 155.017 84.4527V81.4128H154.29V80.3142H155.017V78.094H156.462V80.3142H157.833V81.4128H156.462V84.3516C156.447 84.5616 156.501 84.7706 156.615 84.9476C156.668 85.0155 156.736 85.0697 156.814 85.1055C156.892 85.1413 156.977 85.1576 157.063 85.1529C157.262 85.1536 157.456 85.0884 157.614 84.9675L157.981 86.1228C157.793 86.2283 157.592 86.3067 157.382 86.3557C157.167 86.4114 156.946 86.4397 156.724 86.44Z" fill="black"/>
<path d="M162.376 86.44C161.353 86.44 160.619 86.2306 160.174 85.8117C159.728 85.3919 159.507 84.6978 159.507 83.7325V80.3141H160.952V83.4062C160.952 84.0773 161.059 84.5523 161.274 84.8342C161.489 85.1161 161.857 85.2586 162.376 85.2586C162.894 85.2586 163.262 85.1161 163.477 84.8342C163.692 84.5523 163.799 84.0773 163.799 83.4062V80.3141H165.246V83.7325C165.246 84.6978 165.023 85.3909 164.577 85.8117C164.131 86.2326 163.397 86.442 162.376 86.44Z" fill="black"/>
<path d="M167.354 86.2638V80.3142H168.8V81.1799C168.991 80.8576 169.261 80.5887 169.584 80.3984C169.899 80.219 170.256 80.1265 170.618 80.1303C170.825 80.1308 171.031 80.157 171.232 80.2084C171.417 80.2513 171.596 80.3205 171.762 80.4138L171.164 81.6395C171.025 81.5577 170.875 81.4948 170.719 81.4526C170.569 81.4108 170.415 81.3881 170.259 81.3852C170.012 81.3846 169.769 81.4502 169.556 81.5752C169.342 81.6965 169.158 81.8653 169.018 82.0686C168.884 82.2589 168.813 82.4857 168.812 82.7182V86.2638H167.354Z" fill="black"/>
<path d="M100.767 100.181L101.822 90.6076H103.438L105.918 97.1425L108.399 90.6153H110.012L111.071 100.189H109.554L108.787 93.3641L106.404 99.8285H105.435L103.048 93.3641L102.281 100.189L100.767 100.181Z" fill="black"/>
<path d="M116.031 100.36C115.426 100.372 114.827 100.236 114.286 99.9648C113.785 99.7107 113.361 99.3265 113.059 98.8524C112.763 98.355 112.607 97.7871 112.607 97.2084C112.607 96.6297 112.763 96.0617 113.059 95.5643C113.361 95.0909 113.785 94.7073 114.286 94.4535C114.829 94.1907 115.424 94.0542 116.027 94.0542C116.63 94.0542 117.225 94.1907 117.767 94.4535C118.269 94.7058 118.694 95.0898 118.994 95.5643C119.29 96.062 119.445 96.6299 119.445 97.2084C119.445 97.7869 119.29 98.3547 118.994 98.8524C118.694 99.3274 118.269 99.7119 117.767 99.9648C117.229 100.235 116.633 100.371 116.031 100.36ZM116.031 99.1191C116.373 99.1243 116.71 99.0392 117.009 98.8724C117.294 98.7127 117.53 98.4786 117.692 98.1951C117.857 97.8891 117.944 97.5469 117.944 97.1992C117.944 96.8515 117.857 96.5093 117.692 96.2032C117.53 95.9199 117.294 95.6862 117.009 95.5275C116.708 95.3676 116.373 95.284 116.032 95.284C115.691 95.284 115.356 95.3676 115.055 95.5275C114.769 95.6857 114.531 95.9194 114.369 96.2032C114.205 96.5096 114.119 96.8517 114.119 97.1992C114.119 97.5467 114.205 97.8888 114.369 98.1951C114.532 98.4791 114.769 98.7133 115.055 98.8724C115.352 99.0401 115.689 99.1267 116.031 99.1236V99.1191Z" fill="black"/>
<path d="M121.171 100.181V94.2405H122.618V94.9514C122.839 94.6766 123.121 94.4555 123.44 94.3048C123.808 94.132 124.21 94.046 124.617 94.0536C125.035 94.0434 125.448 94.1444 125.815 94.3462C126.156 94.5381 126.433 94.8251 126.614 95.1721C126.812 95.5638 126.911 95.9987 126.899 96.4377V100.181H125.453V96.7395C125.453 96.2431 125.328 95.8616 125.083 95.5934C124.952 95.4569 124.794 95.3503 124.618 95.281C124.442 95.2117 124.253 95.1813 124.064 95.192C123.797 95.1856 123.533 95.2478 123.297 95.3728C123.09 95.4873 122.917 95.6556 122.797 95.86C122.681 96.0662 122.621 96.2992 122.624 96.5357V100.181H121.171Z" fill="black"/>
<path d="M129.751 93.0208C129.597 93.0215 129.445 92.9808 129.312 92.9028C129.181 92.8237 129.072 92.7137 128.993 92.5826C128.914 92.4481 128.873 92.2944 128.875 92.1383C128.873 91.9855 128.914 91.8353 128.993 91.7047C129.071 91.5737 129.181 91.4646 129.312 91.3875C129.445 91.3084 129.597 91.267 129.751 91.268C129.906 91.2658 130.058 91.3072 130.19 91.3875C130.319 91.4661 130.427 91.575 130.504 91.7047C130.583 91.8356 130.624 91.9856 130.622 92.1383C130.624 92.2943 130.583 92.4479 130.504 92.5826C130.426 92.7125 130.318 92.8222 130.19 92.9028C130.057 92.9819 129.905 93.0227 129.751 93.0208ZM129.025 100.181V94.2405H130.472V100.181H129.025Z" fill="black"/>
<path d="M134.566 100.36C134.331 100.373 134.096 100.332 133.878 100.242C133.661 100.152 133.466 100.014 133.309 99.8392C133.002 99.4898 132.858 99.0011 132.858 98.3713V95.336H132.132V94.2405H132.858V92.0172H134.304V94.2405H135.676V95.336H134.304V98.2763C134.29 98.4863 134.344 98.6953 134.458 98.8723C134.51 98.9399 134.578 98.9937 134.656 99.0292C134.733 99.0647 134.819 99.0808 134.904 99.0761C135.103 99.0761 135.297 99.0116 135.456 98.8923L135.821 100.046C135.635 100.152 135.434 100.231 135.225 100.28C135.009 100.334 134.788 100.361 134.566 100.36Z" fill="black"/>
<path d="M140.405 100.36C139.801 100.37 139.203 100.233 138.664 99.9602C138.162 99.7063 137.738 99.322 137.437 98.8478C137.139 98.3508 136.983 97.7827 136.983 97.2038C136.983 96.6249 137.139 96.0567 137.437 95.5597C137.739 95.0862 138.162 94.7025 138.664 94.4488C139.207 94.1859 139.802 94.0492 140.405 94.0492C141.008 94.0492 141.603 94.1859 142.146 94.4488C142.649 94.701 143.073 95.085 143.373 95.5597C143.669 96.0574 143.824 96.6253 143.824 97.2038C143.824 97.7823 143.669 98.3501 143.373 98.8478C143.073 99.3229 142.649 99.7075 142.146 99.9602C141.607 100.233 141.009 100.37 140.405 100.36ZM140.405 99.119C140.747 99.1243 141.085 99.0392 141.384 98.8723C141.668 98.713 141.904 98.4788 142.065 98.1951C142.23 97.8891 142.316 97.5468 142.316 97.1992C142.316 96.8515 142.23 96.5093 142.065 96.2032C141.904 95.9196 141.669 95.6858 141.384 95.5275C141.083 95.3676 140.747 95.284 140.407 95.284C140.066 95.284 139.73 95.3676 139.429 95.5275C139.142 95.6847 138.905 95.9187 138.744 96.2032C138.578 96.5093 138.492 96.8515 138.492 97.1992C138.492 97.5468 138.578 97.8891 138.744 98.1951C138.905 98.4797 139.143 98.7141 139.429 98.8723C139.727 99.0402 140.063 99.1269 140.405 99.1236V99.119Z" fill="black"/>
<path d="M145.544 100.181V94.2405H146.991V95.1046C147.182 94.7819 147.452 94.513 147.776 94.3232C148.09 94.1426 148.447 94.0495 148.81 94.0535C149.017 94.0538 149.223 94.08 149.424 94.1317C149.609 94.1763 149.788 94.2454 149.956 94.337L149.356 95.5628C149.218 95.4806 149.069 95.4181 148.913 95.3774C148.763 95.335 148.608 95.3119 148.453 95.3084C148.206 95.3078 147.963 95.3734 147.75 95.4984C147.536 95.6208 147.352 95.79 147.213 95.9933C147.078 96.1832 147.006 96.4102 147.006 96.643V100.182L145.544 100.181Z" fill="black"/>
<path d="M151.87 93.0208C151.716 93.0215 151.565 92.9808 151.432 92.9028C151.301 92.8237 151.191 92.7137 151.113 92.5826C151.033 92.4481 150.992 92.2944 150.995 92.1383C150.993 91.9855 151.033 91.8353 151.113 91.7047C151.19 91.5737 151.3 91.4646 151.432 91.3875C151.564 91.3084 151.716 91.267 151.87 91.268C152.025 91.2658 152.177 91.3072 152.309 91.3875C152.435 91.4671 152.541 91.5759 152.616 91.7047C152.695 91.8356 152.735 91.9856 152.734 92.1383C152.736 92.2943 152.695 92.4479 152.616 92.5826C152.54 92.7117 152.435 92.8213 152.309 92.9028C152.177 92.9819 152.025 93.0227 151.87 93.0208ZM151.145 100.181V94.2405H152.591V100.181H151.145Z" fill="black"/>
<path d="M154.833 100.181V94.2405H156.279V94.9514C156.5 94.6759 156.782 94.4547 157.102 94.3048C157.469 94.132 157.871 94.046 158.277 94.0535C158.695 94.0434 159.109 94.1444 159.476 94.3462C159.817 94.539 160.094 94.8257 160.275 95.1721C160.474 95.564 160.571 95.9988 160.559 96.4377V100.181H159.113V96.7395C159.113 96.2431 158.99 95.8611 158.745 95.5934C158.614 95.4568 158.455 95.3501 158.279 95.2808C158.102 95.2115 157.913 95.1812 157.724 95.192C157.457 95.1855 157.193 95.2478 156.957 95.3728C156.749 95.4864 156.576 95.655 156.457 95.86C156.341 96.0662 156.281 96.2992 156.284 96.5357V100.181H154.833Z" fill="black"/>
<path d="M165.468 103.369C164.782 103.392 164.102 103.241 163.491 102.93C162.963 102.647 162.549 102.192 162.316 101.641L163.5 101.074C163.68 101.403 163.955 101.671 164.29 101.84C164.652 102.034 165.057 102.133 165.468 102.128C165.817 102.135 166.162 102.057 166.475 101.902C166.758 101.756 166.995 101.534 167.159 101.261C167.331 100.965 167.417 100.626 167.409 100.284V99.2278C167.158 99.5826 166.824 99.8712 166.436 100.069C166.049 100.267 165.619 100.368 165.184 100.363C164.662 100.369 164.149 100.229 163.703 99.9587C163.255 99.6856 162.889 99.2992 162.639 98.8387C162.383 98.3351 162.249 97.778 162.249 97.213C162.249 96.6479 162.383 96.0909 162.639 95.5873C162.885 95.1252 163.25 94.7373 163.696 94.4642C164.159 94.1852 164.69 94.0423 165.23 94.052C165.668 94.0472 166.101 94.1464 166.493 94.3416C166.864 94.5263 167.181 94.804 167.413 95.1475V94.2389H168.86V100.342C168.873 100.898 168.742 101.448 168.48 101.938C168.22 102.4 167.823 102.769 167.344 102.996C166.756 103.263 166.114 103.391 165.468 103.369ZM165.596 99.1298C165.934 99.1364 166.267 99.0511 166.56 98.8831C166.837 98.7209 167.064 98.4861 167.217 98.2043C167.374 97.8975 167.456 97.5577 167.456 97.213C167.456 96.8683 167.374 96.5285 167.217 96.2216C167.065 95.937 166.838 95.6995 166.56 95.5352C166.272 95.3679 165.944 95.2826 165.611 95.2885C165.277 95.2829 164.947 95.3681 164.658 95.5352C164.38 95.6986 164.152 95.9363 164.002 96.2216C163.84 96.5272 163.758 96.8688 163.764 97.2145C163.757 97.5591 163.838 97.8998 164 98.2043C164.15 98.4857 164.374 98.7206 164.649 98.8831C164.936 99.0507 165.263 99.1375 165.596 99.1344V99.1298Z" fill="black"/>
<path d="M117.957 114.29C117.533 114.295 117.11 114.236 116.702 114.115C116.356 114.012 116.023 113.867 115.711 113.683C115.457 113.533 115.217 113.359 114.995 113.163C114.84 113.029 114.693 112.885 114.553 112.734L115.354 111.509C115.463 111.619 115.6 111.754 115.764 111.907C115.943 112.076 116.137 112.229 116.342 112.367C116.574 112.521 116.824 112.646 117.086 112.739C117.379 112.841 117.687 112.893 117.997 112.892C118.285 112.897 118.572 112.845 118.839 112.739C119.078 112.643 119.283 112.481 119.432 112.272C119.585 112.046 119.663 111.778 119.654 111.505C119.661 111.267 119.603 111.031 119.487 110.822C119.369 110.623 119.207 110.453 119.014 110.326C118.783 110.169 118.538 110.033 118.283 109.918C117.999 109.789 117.684 109.656 117.336 109.517C117.084 109.41 116.838 109.287 116.601 109.15C116.361 109.014 116.141 108.847 115.945 108.653C115.752 108.459 115.596 108.232 115.484 107.983C115.363 107.705 115.303 107.405 115.31 107.102C115.308 106.748 115.38 106.397 115.521 106.072C115.663 105.745 115.868 105.448 116.123 105.199C116.39 104.94 116.705 104.735 117.051 104.595C117.432 104.445 117.839 104.37 118.249 104.376C118.605 104.375 118.959 104.427 119.3 104.529C119.625 104.628 119.938 104.765 120.232 104.937C120.486 105.081 120.718 105.261 120.921 105.472L120.258 106.624C120.098 106.465 119.923 106.322 119.734 106.198C119.523 106.061 119.295 105.953 119.056 105.876C118.805 105.795 118.542 105.754 118.278 105.755C117.997 105.746 117.719 105.81 117.471 105.94C117.261 106.054 117.086 106.221 116.962 106.425C116.845 106.62 116.784 106.844 116.785 107.071C116.78 107.251 116.823 107.429 116.911 107.586C116.997 107.731 117.115 107.855 117.256 107.948C117.417 108.055 117.587 108.148 117.764 108.223C117.956 108.308 118.158 108.389 118.378 108.47C118.8 108.642 119.189 108.813 119.548 108.99C119.882 109.15 120.195 109.35 120.479 109.587C120.738 109.803 120.947 110.072 121.093 110.376C121.247 110.719 121.321 111.093 121.311 111.469C121.331 112 121.188 112.525 120.901 112.973C120.614 113.421 120.196 113.77 119.705 113.974C119.151 114.201 118.556 114.309 117.957 114.29Z" fill="black"/>
<path d="M123.098 117.12L124.851 113.577L122.029 108.164H123.678L125.693 112.166L127.479 108.164H129.128L124.749 117.12H123.098Z" fill="black"/>
<path d="M131.659 114.289C131.2 114.298 130.744 114.202 130.326 114.009C129.944 113.827 129.616 113.548 129.377 113.199L130.015 112.261C130.223 112.542 130.483 112.779 130.782 112.961C131.045 113.123 131.347 113.209 131.656 113.211C131.827 113.214 131.996 113.179 132.15 113.108C132.29 113.044 132.409 112.942 132.494 112.814C132.58 112.676 132.624 112.517 132.621 112.354C132.628 112.195 132.573 112.04 132.468 111.921C132.343 111.797 132.195 111.701 132.032 111.636C131.839 111.551 131.595 111.449 131.3 111.329C131.057 111.228 130.821 111.112 130.592 110.981C130.375 110.861 130.186 110.696 130.038 110.497C129.885 110.279 129.809 110.017 129.82 109.751C129.814 109.422 129.915 109.099 130.107 108.832C130.31 108.557 130.583 108.341 130.897 108.207C131.259 108.05 131.65 107.972 132.044 107.98C132.363 107.981 132.679 108.037 132.979 108.145C133.313 108.267 133.63 108.431 133.922 108.634L133.399 109.544C132.946 109.167 132.499 108.979 132.057 108.98C131.833 108.969 131.613 109.035 131.432 109.167C131.358 109.222 131.298 109.294 131.257 109.377C131.216 109.46 131.196 109.551 131.198 109.644C131.198 109.722 131.216 109.8 131.251 109.87C131.286 109.94 131.337 110.001 131.4 110.048C131.553 110.172 131.724 110.271 131.906 110.344C132.107 110.43 132.308 110.511 132.509 110.589C132.798 110.691 133.078 110.815 133.347 110.96C133.574 111.081 133.767 111.256 133.91 111.47C134.056 111.723 134.127 112.013 134.114 112.305C134.125 112.685 134.02 113.059 133.815 113.378C133.605 113.685 133.309 113.922 132.963 114.058C132.549 114.223 132.105 114.302 131.659 114.289Z" fill="black"/>
<path d="M137.642 114.29C137.407 114.302 137.171 114.262 136.954 114.171C136.736 114.081 136.541 113.943 136.384 113.767C136.086 113.42 135.936 112.93 135.935 112.299V109.259H135.208V108.164H135.935V105.94H137.381V108.164H138.751V109.259H137.381V112.203C137.367 112.412 137.421 112.62 137.535 112.796C137.587 112.864 137.655 112.918 137.733 112.954C137.811 112.99 137.897 113.006 137.983 113.001C138.182 113.002 138.375 112.937 138.533 112.817L138.9 113.969C138.713 114.076 138.511 114.155 138.302 114.205C138.086 114.26 137.865 114.288 137.642 114.29Z" fill="black"/>
<path d="M143.393 114.29C142.799 114.3 142.212 114.158 141.689 113.877C141.199 113.614 140.788 113.226 140.497 112.753C140.203 112.269 140.051 111.712 140.058 111.145C140.055 110.721 140.139 110.3 140.307 109.91C140.637 109.145 141.254 108.54 142.026 108.225C142.428 108.059 142.859 107.976 143.294 107.98C143.86 107.968 144.421 108.1 144.923 108.363C145.381 108.61 145.759 108.982 146.015 109.435C146.284 109.923 146.419 110.474 146.406 111.031C146.409 111.072 146.409 111.114 146.406 111.156C146.406 111.19 146.398 111.245 146.383 111.322H141.534C141.527 111.654 141.611 111.982 141.778 112.27C141.941 112.543 142.178 112.764 142.461 112.909C142.773 113.066 143.119 113.144 143.468 113.137C143.802 113.143 144.132 113.068 144.43 112.918C144.733 112.757 144.995 112.531 145.197 112.255L146.248 112.796C145.966 113.266 145.559 113.648 145.072 113.9C144.553 114.167 143.976 114.3 143.393 114.29ZM141.592 110.408H144.967C144.926 110.156 144.822 109.918 144.666 109.715C144.51 109.512 144.306 109.351 144.073 109.245C143.825 109.134 143.555 109.078 143.283 109.082C143.001 109.075 142.722 109.13 142.464 109.242C142.228 109.343 142.024 109.503 141.871 109.708C141.718 109.913 141.622 110.155 141.592 110.408Z" fill="black"/>
<path d="M148.133 114.104V108.164H149.579V108.876C149.823 108.597 150.118 108.366 150.448 108.197C150.761 108.049 151.104 107.974 151.45 107.977C151.889 107.969 152.321 108.08 152.702 108.297C153.049 108.489 153.322 108.791 153.477 109.155C153.716 108.804 154.027 108.506 154.389 108.282C154.749 108.073 155.158 107.967 155.574 107.975C155.969 107.967 156.36 108.058 156.71 108.24C157.038 108.413 157.31 108.675 157.494 108.996C157.694 109.355 157.794 109.763 157.781 110.174V114.104H156.336V110.571C156.357 110.191 156.233 109.817 155.989 109.524C155.874 109.396 155.731 109.296 155.572 109.229C155.413 109.162 155.241 109.131 155.069 109.138C154.822 109.135 154.579 109.192 154.36 109.305C154.16 109.41 153.99 109.564 153.866 109.753C153.749 109.93 153.687 110.138 153.687 110.35V114.104H152.24V110.513C152.259 110.148 152.139 109.791 151.903 109.512C151.786 109.386 151.643 109.287 151.484 109.222C151.325 109.158 151.154 109.129 150.982 109.138C150.733 109.135 150.486 109.192 150.264 109.305C150.064 109.41 149.892 109.562 149.766 109.75C149.646 109.925 149.582 110.132 149.582 110.344V114.104H148.133Z" fill="black"/>
<path d="M31.497 117.12V17.6358H-0.0644226V1.27786H81.4731V17.6358H49.8427V117.12H31.497Z" fill="#007BFF"/>
<path d="M240.554 117.119C235.117 117.119 230.182 116.436 225.75 115.069C221.318 113.703 217.422 112.002 214.064 109.969C210.707 107.939 207.886 105.896 205.6 103.84C203.315 101.784 201.576 100.095 200.385 98.7728L209.857 84.2719C211.137 85.5937 212.747 87.1683 214.688 88.9957C216.816 90.9642 219.096 92.7611 221.508 94.3692C224.238 96.1896 227.186 97.6618 230.282 98.7513C233.527 99.9137 237.113 100.494 241.041 100.493C244.743 100.493 248.056 99.878 250.98 98.6471C253.905 97.4162 256.236 95.5776 257.971 93.1311C259.71 90.6908 260.579 87.6667 260.579 84.0589C260.579 80.9097 259.929 78.2176 258.629 75.9826C257.329 73.7476 255.466 71.7966 253.041 70.1295C250.618 68.4655 247.74 66.8695 244.407 65.3413C241.074 63.8132 237.35 62.2269 233.235 60.5823C230.258 59.3242 227.362 57.8837 224.563 56.2691C221.738 54.6482 219.135 52.669 216.819 50.3808C214.511 48.1026 212.64 45.4228 211.296 42.473C209.925 39.4862 209.239 36.0295 209.239 32.103C209.226 27.9235 210.077 23.7864 211.74 19.951C213.411 16.0914 215.819 12.5937 218.828 9.65295C221.89 6.63755 225.534 4.26415 229.76 2.53275C233.986 0.801343 238.703 -0.0669127 243.913 -0.0720201C248.118 -0.0792602 252.299 0.543096 256.319 1.7743C260.164 2.9294 263.857 4.53889 267.32 6.5686C270.632 8.52984 273.339 10.6274 275.441 12.8614L267.626 26.4843C265.747 24.5874 263.667 22.8998 261.423 21.451C258.943 19.839 256.261 18.5618 253.446 17.6527C250.48 16.6896 247.379 16.205 244.26 16.217C240.515 16.217 237.339 16.9463 234.733 18.405C232.128 19.8636 230.125 21.7697 228.726 24.1232C227.344 26.4298 226.621 29.0703 226.635 31.7582C226.635 34.1301 227.126 36.1491 228.108 37.8151C229.131 39.5267 230.524 40.9883 232.185 42.093C234.078 43.3685 236.088 44.4603 238.188 45.3536C240.452 46.3332 242.84 47.3036 245.352 48.2648C250.329 50.2751 254.932 52.318 259.158 54.3937C263.385 56.4693 267.052 58.8187 270.158 61.4418C273.207 63.9921 275.673 67.1669 277.387 70.7516C279.102 74.3268 279.959 78.6267 279.959 83.6513C279.959 90.6821 278.279 96.7089 274.921 101.731C271.562 106.754 266.924 110.575 261.007 113.196C255.094 115.813 248.276 117.121 240.554 117.119Z" fill="#007BFF"/>
<path d="M104.452 25.7471L61.3208 110.296L64.2787 111.801L107.41 27.2524L104.452 25.7471Z" fill="black"/>
<path d="M192.469 79.8438L170.434 12.5856L173.666 11.8885L195.701 79.1466L192.469 79.8438Z" fill="black"/>
<path d="M112.236 25.4917L109.599 27.5061L131.176 55.6845L133.813 53.6701L112.236 25.4917Z" fill="black"/>
<path d="M167.668 10.5902L135.086 54.2496L137.748 56.2312L170.329 12.5717L167.668 10.5902Z" fill="black"/>
<path d="M107.977 28.0457C110.149 28.0457 111.91 26.2868 111.91 24.1171C111.91 21.9474 110.149 20.1885 107.977 20.1885C105.805 20.1885 104.044 21.9474 104.044 24.1171C104.044 26.2868 105.805 28.0457 107.977 28.0457Z" fill="#95C11F"/>
<path d="M107.984 28.8731C106.887 28.8829 105.821 28.5135 104.965 27.8275C104.109 27.1415 103.518 26.1811 103.29 25.1091C103.062 24.0371 103.213 22.9195 103.716 21.9456C104.219 20.9717 105.043 20.2016 106.05 19.7656C106.622 19.5108 107.239 19.3714 107.866 19.3554C108.492 19.3395 109.115 19.4473 109.7 19.6727C110.284 19.8981 110.818 20.2366 111.271 20.6688C111.724 21.101 112.087 21.6183 112.34 22.1911C112.849 23.345 112.879 24.6534 112.424 25.8296C111.969 27.0057 111.065 27.9536 109.911 28.4655C109.305 28.7355 108.648 28.8744 107.984 28.8731ZM107.984 21.0159C107.21 21.0146 106.462 21.3024 105.889 21.823C105.316 22.3435 104.957 23.0591 104.885 23.8297C104.812 24.6002 105.031 25.3699 105.497 25.9881C105.963 26.6062 106.644 27.0281 107.405 27.171C108.167 27.3139 108.954 27.1676 109.613 26.7607C110.272 26.3538 110.756 25.7157 110.968 24.9715C111.181 24.2273 111.107 23.4306 110.762 22.7377C110.417 22.0447 109.825 21.5055 109.103 21.2258C108.744 21.0865 108.362 21.0153 107.977 21.0159H107.984Z" fill="black"/>
<path d="M170.897 13.1265C173.07 13.1265 174.831 11.3676 174.831 9.19789C174.831 7.02818 173.07 5.26929 170.897 5.26929C168.725 5.26929 166.964 7.02818 166.964 9.19789C166.964 11.3676 168.725 13.1265 170.897 13.1265Z" fill="#E30613"/>
<path d="M170.906 13.9539C170.132 13.9566 169.368 13.7702 168.682 13.411C167.996 13.0517 167.408 12.5304 166.969 11.8925C166.531 11.2545 166.255 10.5192 166.166 9.75049C166.077 8.98179 166.177 8.20298 166.458 7.4818C166.795 6.60164 167.386 5.84152 168.157 5.29814C168.928 4.75476 169.843 4.45269 170.787 4.43035C171.73 4.40801 172.658 4.66641 173.454 5.17268C174.25 5.67895 174.877 6.4102 175.255 7.27342C175.767 8.42818 175.798 9.73854 175.343 10.9165C174.888 12.0945 173.983 13.0437 172.827 13.5555C172.222 13.8217 171.568 13.9575 170.906 13.9539ZM170.906 6.09668C170.445 6.09707 169.989 6.20036 169.572 6.39903C169.155 6.59769 168.788 6.88673 168.498 7.24506C168.207 7.60339 168 8.02199 167.892 8.47034C167.784 8.91869 167.777 9.3855 167.873 9.83673C167.968 10.288 168.163 10.7122 168.443 11.0787C168.724 11.4451 169.083 11.7444 169.493 11.9547C169.904 12.1651 170.357 12.2813 170.819 12.2947C171.28 12.3082 171.739 12.2186 172.161 12.0325C172.813 11.7438 173.345 11.2402 173.668 10.6062C173.992 9.97223 174.087 9.24637 173.938 8.55043C173.79 7.85449 173.406 7.23081 172.851 6.78403C172.297 6.33726 171.605 6.09457 170.893 6.09668H170.906Z" fill="black"/>
<path d="M194.77 88.7628C198.599 88.7628 201.704 85.6621 201.704 81.8372C201.704 78.0123 198.599 74.9116 194.77 74.9116C190.941 74.9116 187.836 78.0123 187.836 81.8372C187.836 85.6621 190.941 88.7628 194.77 88.7628Z" fill="#8CC63F"/>
<path d="M194.768 89.5918C193.233 89.5918 191.732 89.137 190.455 88.2849C189.178 87.4328 188.183 86.2217 187.596 84.8047C187.008 83.3878 186.854 81.8286 187.154 80.3244C187.453 78.8201 188.193 77.4384 189.279 76.3539C190.364 75.2694 191.748 74.5309 193.254 74.2316C194.76 73.9324 196.321 74.086 197.74 74.6729C199.158 75.2598 200.371 76.2538 201.224 77.529C202.077 78.8042 202.532 80.3035 202.532 81.8372C202.53 83.8931 201.711 85.8641 200.256 87.3178C198.8 88.7715 196.827 89.5893 194.768 89.5918ZM194.768 75.742C193.561 75.742 192.381 76.0996 191.377 76.7696C190.373 77.4396 189.591 78.3919 189.129 79.506C188.667 80.6201 188.546 81.846 188.782 83.0287C189.018 84.2114 189.599 85.2977 190.453 86.1503C191.307 87.0029 192.394 87.5834 193.579 87.8185C194.763 88.0535 195.99 87.9326 197.105 87.4709C198.221 87.0092 199.174 86.2276 199.844 85.2248C200.515 84.222 200.873 83.0431 200.872 81.8372C200.871 80.2209 200.227 78.6713 199.083 77.5285C197.938 76.3858 196.387 75.7433 194.768 75.742Z" fill="black"/>
<path d="M134.692 66.2791C138.522 66.2791 141.626 63.1783 141.626 59.3534C141.626 55.5285 138.522 52.4278 134.692 52.4278C130.863 52.4278 127.758 55.5285 127.758 59.3534C127.758 63.1783 130.863 66.2791 134.692 66.2791Z" fill="#FCEE21"/>
<path d="M134.698 67.1111C132.79 67.1165 130.947 66.4217 129.518 65.1586C128.089 63.8956 127.175 62.1523 126.949 60.26C126.722 58.3678 127.2 56.4584 128.291 54.8948C129.381 53.3312 131.009 52.2222 132.865 51.7787C134.72 51.3351 136.674 51.5879 138.356 52.489C140.037 53.3901 141.328 54.8766 141.984 56.6662C142.64 58.4558 142.615 60.4237 141.913 62.1959C141.212 63.9681 139.883 65.4212 138.179 66.2791C137.1 66.8244 135.908 67.1093 134.698 67.1111ZM134.689 53.2537C133.767 53.254 132.858 53.4628 132.028 53.8643C131.199 54.2658 130.472 54.8496 129.9 55.572C129.329 56.2944 128.929 57.1366 128.73 58.0355C128.531 58.9343 128.538 59.8665 128.751 60.7621C128.965 61.6577 129.378 62.4935 129.961 63.2068C130.543 63.9201 131.28 64.4924 132.115 64.8808C132.951 65.2692 133.864 65.4636 134.785 65.4494C135.707 65.4352 136.613 65.2128 137.437 64.7989C138.515 64.2571 139.408 63.4081 140.003 62.3593C140.599 61.3105 140.869 60.1089 140.781 58.9065C140.693 57.7041 140.249 56.5548 139.507 55.604C138.765 54.6532 137.757 53.9436 136.611 53.5647C135.991 53.3595 135.342 53.2545 134.689 53.2537Z" fill="black"/>
<path d="M64.6431 116.288C68.4726 116.288 71.577 113.187 71.577 109.362C71.577 105.537 68.4726 102.436 64.6431 102.436C60.8136 102.436 57.7092 105.537 57.7092 109.362C57.7092 113.187 60.8136 116.288 64.6431 116.288Z" fill="#8CC63F"/>
<path d="M64.6493 117.12C62.7412 117.121 60.899 116.423 59.4727 115.157C58.0465 113.891 57.1356 112.146 56.9131 110.253C56.6906 108.36 57.1721 106.452 58.2661 104.89C59.36 103.329 60.9902 102.223 62.8468 101.783C64.7034 101.344 66.657 101.601 68.3364 102.505C70.0158 103.41 71.3039 104.899 71.9559 106.69C72.608 108.481 72.5785 110.449 71.8732 112.22C71.1678 113.991 69.8357 115.441 68.13 116.295C67.0502 116.838 65.8581 117.12 64.6493 117.12ZM64.637 103.262C63.7156 103.263 62.8063 103.472 61.9774 103.874C61.1484 104.275 60.4212 104.859 59.8502 105.582C59.2793 106.304 58.8794 107.146 58.6806 108.045C58.4818 108.943 58.4892 109.875 58.7023 110.77C58.9153 111.666 59.3285 112.501 59.9108 113.215C60.4931 113.928 61.2295 114.5 62.0647 114.889C62.9 115.277 63.8125 115.472 64.7337 115.458C65.655 115.444 66.5612 115.222 67.3845 114.809C68.4612 114.266 69.3528 113.417 69.9469 112.369C70.541 111.32 70.811 110.12 70.7227 108.918C70.6344 107.717 70.1918 106.569 69.4509 105.618C68.7099 104.668 67.7037 103.958 66.5591 103.578C65.9393 103.371 65.2904 103.264 64.637 103.262Z" fill="black"/>
</g>
<defs>
<clipPath id="clip0">
<rect width="280" height="119.208" fill="white"/>
</clipPath>
</defs>
</svg>
