<svg width="111" height="111" viewBox="0 0 111 111" fill="none" xmlns="http://www.w3.org/2000/svg">
<rect width="111" height="111" fill="#007BFF"/>
<path d="M50.5 36H46V27H50.5V31.5H59.5V36H55V40.5H50.5V36ZM59.5 90V85.5H55V90H59.5ZM55 22.5V18H46V22.5H50.5V27H55V22.5ZM91 18V45H86.5V40.5H68.5V18H91ZM86.5 36V22.5H73V36H86.5ZM23.5 45H19V49.5H28V45H23.5ZM23.5 58.5H28V63H32.5V49.5H28V54H19V63H23.5V58.5ZM46 63V72H50.5V63H46ZM64 18H59.5V31.5H64V18ZM64 40.5V36H59.5V40.5H64ZM77.5 31.5H82V27H77.5V31.5ZM37 22.5H23.5V36H37V22.5ZM77.5 45V49.5H73V45H64V49.5H59.5V45H46V40.5H41.5V45H37V49.5H41.5V58.5H46V54H50.5V63H55V54H68.5V58.5H59.5V63H68.5V67.5H73V54H77.5V58.5H82V67.5H86.5V63H91V58.5H86.5V54H82V49.5H86.5V45H77.5ZM28 81H32.5V76.5H28V81ZM19 67.5H41.5V90H19V67.5ZM23.5 85.5H37V72H23.5V85.5ZM77.5 72V67.5H73V72H77.5ZM77.5 76.5H73V81H68.5V76.5H64V72H68.5V67.5H59.5V63H55V72H50.5V76.5H46V90H50.5V85.5H55V81H64V90H68.5V85.5H73V90H82V85.5H86.5V81H77.5V76.5ZM37 63H41.5V58.5H37V63ZM82 72V76.5H86.5V81H91V67.5H86.5V72H82ZM91 90V85.5H86.5V90H91ZM91 54V49.5H86.5V54H91Z" fill="white"/>
<rect x="2.5" y="2.5" width="106" height="106" stroke="white" stroke-width="5"/>
</svg>
