<svg width="20" height="20" viewBox="0 0 20 20" fill="none" xmlns="http://www.w3.org/2000/svg">
<path d="M19 19.0001L13 13.0001L19 19.0001ZM15 8.00006C15 8.91931 14.8189 9.82957 14.4672 10.6788C14.1154 11.5281 13.5998 12.2998 12.9497 12.9498C12.2997 13.5998 11.5281 14.1154 10.6788 14.4672C9.82951 14.819 8.91925 15.0001 8 15.0001C7.08075 15.0001 6.1705 14.819 5.32122 14.4672C4.47194 14.1154 3.70026 13.5998 3.05025 12.9498C2.40024 12.2998 1.88463 11.5281 1.53284 10.6788C1.18106 9.82957 1 8.91931 1 8.00006C1 6.14355 1.7375 4.36307 3.05025 3.05031C4.36301 1.73756 6.14348 1.00006 8 1.00006C9.85652 1.00006 11.637 1.73756 12.9497 3.05031C14.2625 4.36307 15 6.14355 15 8.00006Z" stroke="#007BFF" stroke-width="2" stroke-linecap="round" stroke-linejoin="round"/>
</svg>
