<svg width="99" height="49" viewBox="0 0 99 49" fill="none" xmlns="http://www.w3.org/2000/svg">
<path d="M15.1676 45.1653V12.8701H5.0835V7.56064H31.1362V12.8701H21.0268V45.1653H15.1676Z" fill="white"/>
<path d="M81.9655 45.1654C80.2275 45.1654 78.6508 44.9434 77.2354 44.4996C75.9291 44.1036 74.6751 43.5477 73.5012 42.844C72.541 42.2677 71.6356 41.6021 70.7969 40.8556C70.216 40.3376 69.6611 39.7903 69.1343 39.2158L72.152 34.504C72.5609 34.934 73.0755 35.4454 73.6959 36.0381C74.3752 36.6772 75.1037 37.2602 75.8745 37.7815C76.7466 38.3727 77.6881 38.8509 78.6771 39.205C79.7827 39.5936 80.9464 39.7847 82.1163 39.77C83.2981 39.77 84.3566 39.5701 85.2918 39.1704C86.1879 38.8003 86.9622 38.18 87.5249 37.3815C88.0798 36.5912 88.3572 35.6097 88.3572 34.4368C88.3572 33.4148 88.1492 32.5409 87.7332 31.8152C87.2873 31.0545 86.6805 30.4037 85.9566 29.9097C85.0828 29.3123 84.1598 28.7924 83.1979 28.3559C82.1316 27.8587 80.9417 27.3437 79.6282 26.811C78.6771 26.4025 77.7519 25.9347 76.8577 25.4103C75.9546 24.8849 75.1227 24.2424 74.3832 23.4989C73.6462 22.7589 73.0488 21.8885 72.6202 20.9306C72.1822 19.9612 71.9632 18.8394 71.9632 17.5651C71.9586 16.2082 72.2307 14.865 72.7624 13.6198C73.297 12.3668 74.0671 11.2314 75.0296 10.2771C76.033 9.28118 77.2198 8.49543 78.5223 7.96467C79.8722 7.40294 81.3794 7.12174 83.0441 7.12108C84.3875 7.1187 85.7237 7.32082 87.008 7.72068C88.2366 8.09536 89.4167 8.61766 90.5231 9.27647C91.581 9.91328 92.4461 10.5945 93.1184 11.3202L90.6215 15.7416C90.0207 15.1265 89.3562 14.5791 88.6395 14.1088C87.8462 13.5857 86.9883 13.1712 86.0881 12.876C85.1407 12.5635 84.1503 12.4061 83.1541 12.4098C81.9567 12.4098 80.942 12.6465 80.11 13.12C79.3197 13.5541 78.6579 14.1945 78.1933 14.9751C77.7522 15.7244 77.5212 16.5817 77.5255 17.4545C77.5255 18.2237 77.6826 18.8789 77.9967 19.4202C78.3235 19.9758 78.7685 20.4503 79.2992 20.8091C79.9035 21.2221 80.5453 21.5757 81.2159 21.865C81.9382 22.1831 82.7011 22.4976 83.5045 22.8084C85.0951 23.4617 86.566 24.1251 87.9172 24.7988C89.1763 25.4133 90.3565 26.1819 91.4314 27.0876C92.4062 27.9155 93.1943 28.9463 93.7424 30.1102C94.2895 31.2719 94.563 32.6677 94.563 34.2975C94.563 36.58 94.0266 38.5359 92.9539 40.1651C91.8811 41.7943 90.3992 43.0347 88.5081 43.8862C86.6124 44.7383 84.4316 45.1647 81.9655 45.1654Z" fill="white"/>
<path d="M38.4783 15.5025L24.6968 42.9488L25.6422 43.4376L39.4237 15.9914L38.4783 15.5025Z" fill="white"/>
<path d="M66.6022 33.0648L59.5612 11.2313L60.594 11.0051L67.635 32.8386L66.6022 33.0648Z" fill="white"/>
<path d="M40.8097 15.2445L39.9714 15.9013L46.8941 24.9988L47.7323 24.342L40.8097 15.2445Z" fill="white"/>
<path d="M58.677 10.5832L48.2664 24.756L49.1171 25.3994L59.5278 11.2266L58.677 10.5832Z" fill="white"/>
<path d="M39.6043 16.2494C40.2983 16.2494 40.861 15.6784 40.861 14.9741C40.861 14.2698 40.2983 13.6989 39.6043 13.6989C38.9102 13.6989 38.3475 14.2698 38.3475 14.9741C38.3475 15.6784 38.9102 16.2494 39.6043 16.2494Z" fill="white"/>
<path d="M39.6073 16.518C39.2583 16.5185 38.9198 16.3971 38.6485 16.1744C38.3772 15.9516 38.1896 15.641 38.1171 15.2946C38.0447 14.9482 38.0918 14.5871 38.2505 14.2717C38.4093 13.9564 38.6701 13.706 38.9891 13.5625C39.172 13.4804 39.3691 13.4357 39.569 13.431C39.769 13.4263 39.9679 13.4617 40.1543 13.5351C40.3408 13.6085 40.5111 13.7185 40.6556 13.8588C40.8001 13.9991 40.9159 14.167 40.9964 14.3528C41.1588 14.7277 41.168 15.1527 41.022 15.5346C40.876 15.9164 40.5867 16.2239 40.2176 16.3896C40.0252 16.4752 39.8173 16.5189 39.6073 16.518ZM39.6073 13.9675C39.4423 13.9677 39.2799 14.0096 39.1349 14.0895C38.9898 14.1695 38.8668 14.2848 38.7768 14.4252C38.6868 14.5655 38.6327 14.7265 38.6195 14.8934C38.6062 15.0603 38.6343 15.2279 38.701 15.3811C38.7735 15.5461 38.8885 15.6883 39.0339 15.7926C39.1794 15.8968 39.3498 15.9594 39.5273 15.9736C39.7049 15.9878 39.8829 15.9532 40.0426 15.8734C40.2024 15.7935 40.338 15.6714 40.4351 15.52C40.5322 15.3685 40.5873 15.1933 40.5944 15.0127C40.6016 14.8322 40.5607 14.653 40.476 14.494C40.3912 14.3351 40.2658 14.2023 40.1129 14.1097C39.96 14.017 39.7853 13.9679 39.6073 13.9675Z" fill="white"/>
<path d="M59.7092 11.4062C60.4033 11.4062 60.966 10.8352 60.966 10.1309C60.966 9.4266 60.4033 8.85565 59.7092 8.85565C59.0152 8.85565 58.4525 9.4266 58.4525 10.1309C58.4525 10.8352 59.0152 11.4062 59.7092 11.4062Z" fill="white"/>
<path d="M59.712 11.6759C59.3627 11.6768 59.0236 11.5557 58.7518 11.3329C58.4801 11.1101 58.2922 10.7992 58.2197 10.4524C58.1471 10.1056 58.1945 9.744 58.3537 9.42842C58.5129 9.11285 58.7742 8.86247 59.0939 8.71937C59.2768 8.63726 59.4738 8.59256 59.6738 8.58785C59.8737 8.58314 60.0726 8.6185 60.2591 8.6919C60.4455 8.76531 60.6159 8.87532 60.7604 9.01564C60.9049 9.15595 61.0207 9.32381 61.1012 9.50961C61.2635 9.88457 61.2727 10.3096 61.1267 10.6914C60.9807 11.0732 60.6915 11.3807 60.3224 11.5465C60.13 11.6323 59.9221 11.6764 59.712 11.6759ZM59.712 9.12437C59.5117 9.12478 59.3161 9.18658 59.1509 9.30167C58.9857 9.41676 58.8586 9.57979 58.7863 9.7694C58.7391 9.89237 58.7164 10.0236 58.7196 10.1555C58.7227 10.2875 58.7517 10.4174 58.8048 10.5379C58.9113 10.7817 59.1088 10.9726 59.3538 11.0689C59.5989 11.1651 59.8716 11.1589 60.1121 11.0516C60.3526 10.9434 60.5409 10.7429 60.6358 10.494C60.7307 10.2451 60.7244 9.96816 60.6183 9.72397C60.54 9.54625 60.4128 9.39519 60.2521 9.28886C60.0914 9.18253 59.9039 9.12542 59.712 9.12437Z" fill="white"/>
<path d="M67.3373 35.96C68.5609 35.96 69.5529 34.9534 69.5529 33.7118C69.5529 32.4701 68.5609 31.4635 67.3373 31.4635C66.1137 31.4635 65.1217 32.4701 65.1217 33.7118C65.1217 34.9534 66.1137 35.96 67.3373 35.96Z" fill="white"/>
<path d="M67.3372 36.2287C66.8466 36.2287 66.3671 36.0811 65.9592 35.8045C65.5513 35.528 65.2334 35.1349 65.0456 34.675C64.8579 34.2151 64.8088 33.709 64.9045 33.2208C65.0002 32.7325 65.2364 32.284 65.5833 31.932C65.9302 31.58 66.3722 31.3403 66.8533 31.2432C67.3344 31.1461 67.8332 31.1959 68.2864 31.3864C68.7396 31.5769 69.127 31.8995 69.3996 32.3135C69.6721 32.7274 69.8176 33.214 69.8176 33.7118C69.8168 34.3791 69.5552 35.0188 69.0902 35.4906C68.6252 35.9625 67.9948 36.2279 67.3372 36.2287ZM67.3372 31.7332C66.9521 31.7332 66.5757 31.8491 66.2555 32.0662C65.9354 32.2832 65.6858 32.5918 65.5385 32.9528C65.3911 33.3138 65.3526 33.711 65.4277 34.0942C65.5028 34.4775 65.6882 34.8295 65.9605 35.1058C66.2328 35.3821 66.5797 35.5702 66.9574 35.6465C67.335 35.7227 67.7265 35.6836 68.0823 35.534C68.438 35.3845 68.7421 35.1313 68.956 34.8064C69.1699 34.4815 69.2841 34.0996 69.2841 33.7088C69.2841 33.1849 69.079 32.6823 68.7139 32.3119C68.3488 31.9414 67.8536 31.7332 67.3372 31.7332Z" fill="white"/>
<path d="M48.1405 28.6611C49.3642 28.6611 50.3561 27.6545 50.3561 26.4129C50.3561 25.1712 49.3642 24.1646 48.1405 24.1646C46.9169 24.1646 45.9249 25.1712 45.9249 26.4129C45.9249 27.6545 46.9169 28.6611 48.1405 28.6611Z" fill="white"/>
<path d="M48.1425 28.9308C47.5336 28.9316 46.9456 28.7055 46.4901 28.2953C46.0347 27.8852 45.7436 27.3196 45.6721 26.706C45.6006 26.0923 45.7537 25.4734 46.1023 24.9668C46.4509 24.4602 46.9707 24.1011 47.563 23.9578C48.1553 23.8145 48.7789 23.8969 49.3153 24.1895C49.8516 24.482 50.2634 24.9642 50.4725 25.5446C50.6815 26.1249 50.6732 26.7629 50.4492 27.3375C50.2251 27.912 49.8009 28.3831 49.2571 28.6611C48.9114 28.8381 48.5297 28.9305 48.1425 28.9308ZM48.1425 24.4333C47.85 24.4357 47.5617 24.505 47.2991 24.636C47.0366 24.767 46.8065 24.9563 46.626 25.1899C46.4455 25.4236 46.3192 25.6955 46.2565 25.9855C46.1938 26.2754 46.1963 26.576 46.2638 26.8649C46.3313 27.1537 46.4621 27.4234 46.6465 27.6539C46.8309 27.8844 47.0641 28.0698 47.3288 28.1963C47.5935 28.3227 47.8829 28.387 48.1754 28.3844C48.468 28.3818 48.7562 28.3123 49.0186 28.1811C49.3646 28.0064 49.6515 27.7311 49.8428 27.3904C50.0342 27.0496 50.1212 26.6588 50.0929 26.2677C50.0646 25.8766 49.9223 25.5029 49.684 25.1942C49.4457 24.8855 49.1222 24.6557 48.7548 24.5341C48.556 24.4673 48.348 24.4333 48.1386 24.4333H48.1425Z" fill="white"/>
<path d="M25.7577 44.8947C26.9814 44.8947 27.9733 43.8881 27.9733 42.6465C27.9733 41.4048 26.9814 40.3982 25.7577 40.3982C24.5341 40.3982 23.5421 41.4048 23.5421 42.6465C23.5421 43.8881 24.5341 44.8947 25.7577 44.8947Z" fill="white"/>
<path d="M25.7607 45.1654C25.1501 45.1678 24.5599 44.9424 24.1024 44.5322C23.6448 44.1219 23.3517 43.5554 23.2788 42.9402C23.2059 42.3251 23.3583 41.7042 23.707 41.1956C24.0557 40.6869 24.5764 40.326 25.1701 40.1815C25.7639 40.0369 26.3893 40.1188 26.9274 40.4115C27.4656 40.7042 27.879 41.1873 28.0891 41.7691C28.2992 42.3508 28.2914 42.9906 28.0671 43.5669C27.8427 44.1432 27.4176 44.6157 26.8724 44.8947C26.5279 45.0723 26.1471 45.165 25.7607 45.1654ZM25.7607 40.6669C25.4681 40.6693 25.1799 40.7385 24.9173 40.8695C24.6548 41.0005 24.4247 41.1899 24.2442 41.4235C24.0637 41.6571 23.9374 41.929 23.8747 42.219C23.812 42.509 23.8145 42.8096 23.882 43.0984C23.9495 43.3873 24.0803 43.657 24.2647 43.8875C24.4491 44.118 24.6823 44.3034 24.947 44.4298C25.2117 44.5563 25.5011 44.6206 25.7936 44.618C26.0862 44.6153 26.3744 44.5458 26.6368 44.4146C26.9828 44.2399 27.2697 43.9647 27.461 43.6239C27.6523 43.2832 27.7394 42.8924 27.7111 42.5013C27.6828 42.1102 27.5405 41.7365 27.3022 41.4277C27.0639 41.119 26.7404 40.8892 26.373 40.7676C26.1742 40.701 25.9662 40.6669 25.7568 40.6669H25.7607Z" fill="white"/>
</svg>
